<svg width="130" height="91" viewBox="0 0 130 91" fill="none" xmlns="http://www.w3.org/2000/svg">
<path d="M55.3333 44.5L56.5 49L61 44.5L65 53L67 48.75L69 44.5L72.5 49L74.6667 44.5M55.3333 44.5L25 90H105L65.8321 31.2481C65.4362 30.6543 64.5638 30.6543 64.1679 31.2481L55.3333 44.5Z" stroke="#4D515A"/>
<path d="M129 89.9998L105.839 54.2932C105.445 53.6855 104.555 53.6855 104.161 54.2932L93 71.4998L105 89.9998H129Z" fill="#D7D8DC"/>
<path d="M81 89.9998H105H81ZM105 89.9998H129L105.839 54.2932C105.445 53.6855 104.555 53.6855 104.161 54.2932L93 71.4998L105 89.9998Z" stroke="#4D515A"/>
<path d="M24.161 54.2932L1 89.9998H25L37 71.4998L25.839 54.2932C25.4447 53.6855 24.5553 53.6855 24.161 54.2932Z" fill="#D7D8DC"/>
<path d="M49 89.9998H25H49ZM25 89.9998H1L24.161 54.2932C24.5553 53.6855 25.4447 53.6855 25.839 54.2932L37 71.4998L25 89.9998Z" stroke="#4D515A"/>
<path d="M63 33V3C63 1.89543 63.8954 1 65 1C66.1046 1 67 1.89543 67 3V33" stroke="#4D515A"/>
<path d="M84 32H99.4676C101.022 32 101.982 30.3041 101.183 28.971L97.3256 22.5426C97.1268 22.2113 97.1367 21.795 97.351 21.4735L100.927 16.1094C101.813 14.7803 100.86 13 99.263 13H85H80V23V28C80 30.2091 81.7909 32 84 32Z" fill="#CAFF5E" stroke="#4D515A"/>
<path d="M67 4H81C83.2091 4 85 5.79086 85 8V23H67V4Z" fill="#CAFF5E" stroke="#4D515A"/>
<path d="M80 4H81C83.2091 4 85 5.79086 85 8V23C85 25.2091 83.2091 27 81 27H80V23.2083" stroke="#4D515A"/>
</svg>
