<svg width="122" height="91" viewBox="0 0 122 91" fill="none" xmlns="http://www.w3.org/2000/svg">
<path d="M120.86 1H1V10.8889H120.86V1Z" fill="#CAFF5E" stroke="#4D515A"/>
<path d="M35.959 10.8887H85.9005L75.9122 20.7776H45.9473L35.959 10.8887Z" stroke="#4D515A"/>
<path d="M35.959 1L45.9473 10.8889" stroke="#4D515A" stroke-width="0.5"/>
<path d="M45.9473 1L55.9356 10.8889" stroke="#4D515A" stroke-width="0.5"/>
<path d="M55.9355 1L65.9238 10.8889" stroke="#4D515A" stroke-width="0.5"/>
<path d="M56.8887 59.5H64.9691L62.949 65H58.9088L56.8887 59.5Z" fill="#CAFF5E"/>
<path d="M65.9238 1L75.9121 10.8889" stroke="#4D515A" stroke-width="0.5"/>
<path d="M75.9121 1L85.9004 10.8889" stroke="#4D515A" stroke-width="0.5"/>
<path d="M85.9004 1L95.8887 10.8889" stroke="#4D515A" stroke-width="0.5"/>
<path d="M95.8887 1L105.877 10.8889" stroke="#4D515A" stroke-width="0.5"/>
<path d="M105.877 1L115.866 10.8889" stroke="#4D515A" stroke-width="0.5"/>
<path d="M114.867 1L121 7.0724" stroke="#4D515A" stroke-width="0.5"/>
<path d="M25.9707 1L35.959 10.8889" stroke="#4D515A" stroke-width="0.5"/>
<path d="M15.9824 1L25.9707 10.8889" stroke="#4D515A" stroke-width="0.5"/>
<path d="M6.99268 1L16.981 10.8889" stroke="#4D515A" stroke-width="0.5"/>
<path d="M1 3.96631L7.99181 10.8886" stroke="#4D515A" stroke-width="0.5"/>
<path d="M56.9347 59.3445L58.9323 65.2778H62.9277L64.9253 59.3445M71.9171 52.4223V20.7778H49.9429V52.4223H71.9171ZM71.9171 52.4223L64.9253 59.3445L71.9171 52.4223ZM71.9171 52.4223H49.9429H71.9171ZM49.9429 52.4223L56.9347 59.3445L49.9429 52.4223ZM56.9347 59.3445H64.9253H56.9347Z" stroke="#4D515A"/>
<path d="M58.1832 34.1278H63.6768M63.6768 26.7112H66.4236H71.9171V20.7778H49.9429V26.7112H55.4364H58.1832H63.6768ZM63.6768 26.7112H60.93H58.1832H63.6768ZM63.6768 26.7112V34.1278V26.7112ZM58.1832 26.7112V34.1278V26.7112ZM58.1832 34.1278V38.7977C58.1832 40.3147 59.413 41.5445 60.93 41.5445C62.447 41.5445 63.6768 40.3147 63.6768 38.7977V34.1278H58.1832Z" stroke="#4D515A"/>
<path d="M1 87.0335C1 85.3951 2.32822 84.0669 3.96667 84.0669H16.2072H58.9321V90.0002H3.96666C2.32822 90.0002 1 88.672 1 87.0335Z" fill="#D7D8DC" stroke="#4D515A"/>
<path d="M120.859 87.0335C120.859 85.3951 119.531 84.0669 117.893 84.0669H105.652H62.9272V90.0002H117.893C119.531 90.0002 120.859 88.672 120.859 87.0335Z" fill="#D7D8DC" stroke="#4D515A"/>
<path d="M60.9297 65.7812V81.5946" stroke="#4D515A"/>
<path d="M58.9324 81.0999L54.9371 77.1443L52.9395 75.1665" stroke="#4D515A"/>
<path d="M62.9272 81.0999L66.9226 77.1443L68.9202 75.1665" stroke="#4D515A"/>
<path d="M52.9388 81.1001H46.9458" stroke="#4D515A"/>
<path d="M74.9134 81.1001H68.9204" stroke="#4D515A"/>
</svg>
