<svg width="98" height="91" viewBox="0 0 98 91" fill="none" xmlns="http://www.w3.org/2000/svg">
<path d="M49 57C61.1503 57 71 47.1503 71 35C71 22.8497 61.1503 13 49 13C36.8497 13 27 22.8497 27 35C27 47.1503 36.8497 57 49 57Z" fill="#CAFF5E"/>
<path d="M49 53C58.9411 53 67 44.9411 67 35C67 25.0589 58.9411 17 49 17C39.0589 17 31 25.0589 31 35C31 44.9411 39.0589 53 49 53Z" fill="#EAEBEE" stroke="#4D515A"/>
<path d="M80.6409 14.7679V40.7206C80.6409 61.3913 68.235 80.0427 49.1713 88.0331C30.1075 80.0427 17.7017 61.3913 17.7017 40.7207V15.6279M66.3047 1.4917H31.1239H66.3047Z" stroke="#4D515A"/>
<path d="M31.4696 1C31.4696 9.04881 25.2588 15.2597 17.21 15.2597" stroke="#4D515A"/>
<path d="M66.3813 1C66.3813 9.04881 72.5922 15.2597 80.641 15.2597" stroke="#4D515A"/>
<path d="M19.6685 75.2485H77.6906V87.9999C77.6906 89.1045 76.7951 89.9999 75.6906 89.9999H21.6685C20.5639 89.9999 19.6685 89.1045 19.6685 87.9999V75.2485Z" fill="#CAFF5E" stroke="#4D515A"/>
<path d="M2.89038 72.6627C1.76201 71.3688 2.68094 69.3481 4.3977 69.3481H17.6683C18.7729 69.3481 19.6683 70.2436 19.6683 71.3481V85.083H4.15414C2.47833 85.083 1.54561 83.1455 2.59078 81.8356L6.55597 76.8659L2.89038 72.6627Z" fill="#CAFF5E" stroke="#4D515A"/>
<path d="M77.6904 71.3481C77.6904 70.2436 78.5859 69.3481 79.6904 69.3481H93.0889C94.7845 69.3481 95.7108 71.3259 94.6253 72.6285L90.8028 77.2155L94.6253 81.8026C95.7108 83.1052 94.7845 85.083 93.0889 85.083H77.6904V71.3481Z" fill="#CAFF5E" stroke="#4D515A"/>
<path d="M39.735 33.6445C39.3605 33.2386 38.7278 33.2131 38.3219 33.5876C37.916 33.9621 37.8905 34.5948 38.265 35.0007L39.735 33.6445ZM46.0833 42L45.3484 42.6781L46.0833 43.4747L46.8183 42.6781L46.0833 42ZM59.735 28.6781C60.1095 28.2722 60.084 27.6395 59.6781 27.265C59.2722 26.8905 58.6395 26.916 58.265 27.3219L59.735 28.6781ZM38.265 35.0007L45.3484 42.6781L46.8183 41.3219L39.735 33.6445L38.265 35.0007ZM46.8183 42.6781L59.735 28.6781L58.265 27.3219L45.3484 41.3219L46.8183 42.6781Z" fill="#4D515A"/>
</svg>
