<svg width="119" height="103" viewBox="0 0 119 103" fill="none" xmlns="http://www.w3.org/2000/svg">
<path d="M59 23.5937L54.1563 18.75C44.3705 8.96419 28.5045 8.96419 18.7188 18.75C8.93292 28.5358 8.93294 44.4017 18.7188 54.1875L32.5929 68.0617L34 69.4687M90.4375 55.0313L67.5 32.0312L90.4375 55.0313Z" stroke="#4D515A"/>
<path d="M71.7227 53.0662L86.753 68.0966C89.0469 70.3905 92.7661 70.3905 95.0599 68.0966C97.3421 65.8144 97.3555 62.1184 95.0898 59.8198L81.4006 45.9316" stroke="#4D515A"/>
<path d="M66.4855 47.9097L87.6987 69.1229C90.0418 71.4661 90.0418 75.2651 87.6987 77.6082C85.3555 79.9514 81.5565 79.9514 79.2134 77.6082L61.5244 59.9193" stroke="#4D515A"/>
<path d="M60.6138 59.0317L80.6414 79.0593C83.0201 81.438 83.0201 85.2946 80.6414 87.6733L80.2833 88.0315C78.1024 90.2124 74.5665 90.2124 72.3855 88.0315" stroke="#4D515A"/>
<path d="M100.015 54.3233L95.0002 59.4998L68.0002 32.4998L53.7719 46.2726C51.3755 48.5923 47.5616 48.5612 45.2033 46.2029C42.8561 43.8557 42.8561 40.0501 45.2033 37.7029L57.221 25.6852L64.016 18.8902C73.8794 9.02684 89.871 9.02684 99.7344 18.8902C109.487 28.6432 109.612 44.4169 100.015 54.3233Z" fill="#D7D8DC" stroke="#4D515A"/>
<path d="M47.2919 69.8373C49.1618 67.609 48.8711 64.2867 46.6427 62.4169C44.4144 60.547 41.0921 60.8377 39.2223 63.0661L34.3857 68.8301C32.5159 71.0585 32.8065 74.3807 35.0349 76.2506C37.2633 78.1204 40.5855 77.8297 42.4554 75.6014L47.2919 69.8373Z" fill="#D7D8DC" stroke="#4D515A"/>
<path d="M55.8881 76.5234C57.758 74.295 57.4673 70.9727 55.2389 69.1029C53.0106 67.2331 49.6883 67.5237 47.8185 69.7521L42.9819 75.5161C41.1121 77.7445 41.4027 81.0668 43.6311 82.9366C45.8595 84.8064 49.1817 84.5158 51.0516 82.2874L55.8881 76.5234Z" fill="#D7D8DC" stroke="#4D515A"/>
<path d="M63.5293 84.1645C65.3991 81.9361 65.1084 78.6139 62.88 76.744C60.6517 74.8742 57.3294 75.1649 55.4596 77.3932L50.623 83.1573C48.7532 85.3856 49.0438 88.7079 51.2722 90.5777C53.5006 92.4475 56.8228 92.1569 58.6927 89.9285L63.5293 84.1645Z" fill="#D7D8DC" stroke="#4D515A"/>
<path d="M71.1699 91.8051C73.0397 89.5767 72.749 86.2545 70.5207 84.3846C68.2923 82.5148 64.97 82.8055 63.1002 85.0339L58.2636 90.7979C56.3938 93.0263 56.6844 96.3485 58.9128 98.2183C61.1412 100.088 64.4635 99.7975 66.3333 97.5691L71.1699 91.8051Z" fill="#D7D8DC" stroke="#4D515A"/>
</svg>
