<svg width="70" height="70" viewBox="0 0 70 70" fill="none" xmlns="http://www.w3.org/2000/svg">
<path fill-rule="evenodd" clip-rule="evenodd" d="M35 70C15.67 70 0 54.33 0 35C0 15.67 15.67 0 35 0C54.33 0 70 15.67 70 35C70 54.33 54.33 70 35 70ZM41.6947 43.0592C42.656 44.0503 42.6318 45.6331 41.6407 46.5944C40.6496 47.5556 39.0669 47.5315 38.1056 46.5404L28.6003 36.7404L26.9121 34.9998L28.6003 33.2592L38.1056 23.4592C39.0669 22.4681 40.6496 22.444 41.6407 23.4053C42.6318 24.3666 42.656 25.9493 41.6947 26.9404L33.8776 34.9998L41.6947 43.0592Z" fill="#CAFF5E"/>
</svg>
