<svg width="261" height="45" viewBox="0 0 261 45" fill="none" xmlns="http://www.w3.org/2000/svg">
<path d="M28.7683 3.008L28.5283 3.872L26.9923 5.936L25.8403 7.328L25.7443 7.424L25.6483 7.616L24.8803 8.672L23.4403 10.064L22.4803 11.456L22.3363 11.6L22.0483 11.84L21.9523 11.936L21.8083 12.032L21.7603 12.128L21.6163 12.608L20.6563 13.52V13.664L20.1763 14.144L19.9843 14.288L19.2643 15.2L19.1683 15.296L18.9763 15.44L18.8803 15.584L19.1203 15.824L19.3603 16.304L19.5523 16.544L19.6963 17.648L20.2243 18.8L20.4163 20L20.8003 20.672L21.0403 22.16L21.4243 22.352L21.3763 22.496L21.4243 22.832L21.5683 22.928L21.5203 24.32L21.7603 25.424L21.8563 25.568L22.0963 26.048L22.1443 26.192L22.0483 27.008L22.2403 27.248L22.2883 27.632L22.3363 27.776L22.4803 28.544L22.2403 29.648L22.3363 30.416L22.0003 31.136L20.5603 32.192L20.3683 32.336L19.6963 32.576H19.0723L18.4003 32.336L17.6323 32.096L17.1523 31.856L16.8643 31.568L16.6723 31.28L16.3843 30.464L16.3363 29.984V29.744L16.2883 29.312L16.3363 29.12L15.8563 28.304L15.7603 27.104L15.6643 27.008L15.6163 26.816L15.5683 26.768L15.4723 26.048L15.2803 25.712L15.1363 25.376L15.0403 25.088L14.9443 24.464L14.9923 24.224L14.9443 24.032L14.8003 23.936L14.7523 23.792L14.6083 23.552V23.168L14.5123 22.88V22.544L14.4163 21.92L14.1763 20.912L13.9843 21.488L13.6963 22.016L13.4563 22.256L13.3603 22.352L13.2643 22.496V22.448L13.0723 22.736L12.1123 23.84L11.5363 24.8L11.0083 25.52L10.5763 25.904L9.56831 27.488L8.60831 28.544L7.64831 29.936L6.97631 30.608L6.83231 31.04L6.30431 31.616L5.34431 33.104L4.52831 33.872L3.28031 34.448L2.17631 34.64L1.79231 34.352L1.74431 34.304H1.69631L1.64831 34.256H1.16831L0.544312 33.68L0.400312 33.392V33.104L0.352312 33.008L0.400312 32.864L0.256312 32.576L0.304312 31.52L0.688312 30.224L1.79231 29.072L1.74431 29.168L2.17631 28.736L2.22431 28.592L2.36831 28.304L2.41631 28.16L2.94431 27.584L2.99231 27.44L3.23231 27.152L3.32831 27.008L4.33631 25.808L4.57631 25.136L6.30431 23.552L6.97631 22.064L7.40831 21.872L7.84031 21.392L8.22431 20.672L9.13631 19.808L9.56831 19.088L10.1443 18.512L10.8643 17.36L11.5843 16.832L11.7283 16.4L11.8243 16.304L11.9683 16.112L12.0643 16.016L12.2563 15.872L11.8723 15.248L11.8243 14.96L11.2483 14.192L11.1523 14.048L10.9603 13.664L10.9123 13.376L10.8163 13.136L10.7683 12.8L10.0003 11.552L9.76031 10.784L9.04031 9.968L8.60831 8.48L8.70431 8.576L7.79231 7.136L7.84031 7.232L6.68831 5.744L6.44831 4.64L6.54431 3.968L7.02431 3.008H6.97631L7.02431 2.96L7.16831 2.864L7.26431 2.576L8.17631 1.52L8.89631 1.232H9.32831L9.71231 1.04H10.0963L10.6723 1.088L11.1043 1.232H11.3443L11.5843 1.424H11.6323L11.8243 1.52L11.9683 1.568L12.0643 1.664L12.1603 1.712L12.6883 2.48L13.5523 3.296L13.6003 3.872H13.7923L14.3683 4.976L14.9443 5.6L15.2803 6.32L15.3763 6.896L15.6643 7.136L15.9523 8.192L16.2883 8.576L17.0083 10.352L17.8243 9.104L18.0643 9.008L18.3523 8.576L18.4003 8.384L19.6483 7.232L19.8883 6.896L20.2723 6.464L20.6563 6.08L20.8963 5.648L21.6163 4.976L22.2883 3.968L22.7203 3.872L22.9123 3.392L23.5843 2.768L25.2643 1.424L26.5123 1.04L27.8083 1.136L28.1923 1.808L28.3363 2L28.5283 2.24L28.5763 2.384L28.7683 3.008ZM63.0797 17.456L62.9837 18.224L62.7917 18.608L62.6957 20.576L62.4077 22.928H62.3117L62.2637 23.36L62.3117 23.456L62.2637 24.992L62.0237 25.712L61.9277 26.432L61.5917 27.296L61.6397 27.44L61.4957 27.968L61.4477 28.16L61.1117 28.976L60.8237 30.224L60.2477 31.328L59.8637 32.144L59.1437 32.864L58.9517 33.104L57.9437 33.68L56.8877 34.16L56.2157 33.92L55.5917 33.488H55.3997L55.4957 33.2L54.8237 32.432L54.9677 31.136L55.0637 30.8L55.2077 29.84V28.928L55.2557 28.544L55.3997 27.968L55.5917 27.008L55.6877 25.616L55.6397 24.992L55.9757 24.32L56.0237 24.128V23.984L56.0717 23.696L56.1197 23.552L56.0237 22.544L56.1197 22.256L56.0237 22.16L56.0717 21.968L56.2637 21.104H56.0717L56.3117 19.52H56.2637L56.1197 19.424H56.0717L56.2157 18.896V18.752L56.3117 18.32L56.3597 18.128L56.2157 17.552L56.2637 15.488L56.3597 15.2L56.1197 14.96L56.2157 14.672L56.0717 13.808L56.0237 13.712V13.616L55.9757 13.568L55.9277 13.424L55.7837 13.088L55.8317 12.416V12.032L55.7357 11.456L55.5917 11.168L55.3517 10.736L55.3037 10.592L55.2077 9.68L55.0157 9.392L54.8237 8.672L54.2477 9.392L53.7677 9.68L53.2397 10.544L52.7117 11.072L52.4717 11.456L52.4237 11.552L52.4717 11.744L51.7997 12.8L51.6557 13.328L50.7437 14.384L50.5517 15.104L50.0717 15.776V16.16L49.6877 16.64L49.5917 17.168L49.3037 17.84L48.8717 18.992L48.3917 21.056L47.7197 22.976L47.6237 24.032L47.6717 24.32L47.6237 24.416V24.56L47.6717 24.608L47.5277 24.704L47.3357 25.616H47.5277L47.0957 27.2V27.584L46.9037 28.4L46.8557 28.448V29.024L46.9037 29.168L46.3757 30.176L46.3277 30.512L46.2797 30.704L45.7997 31.712L45.1757 32.288L44.8877 32.528L44.4557 32.768L44.1677 32.864L44.1197 33.008H42.2957H42.1997L42.1517 32.96H41.6717L41.7677 32.672L41.2397 32.576L41.1437 31.52L40.7597 30.752L40.5197 29.936L40.8557 28.736L40.8077 28.448L40.8557 26.96L40.9997 25.904L40.7117 25.808L40.8557 24.8H40.9517L40.9997 24.608L40.9517 24.368L40.9037 24.176V23.84L40.9997 23.552L41.0477 23.072L40.9037 23.168V22.256H40.8077L40.9517 22.16L40.9997 21.008L40.8557 19.808L40.8077 19.664L40.8557 19.424L40.9517 19.136L40.8077 18.704L40.9037 18.32L40.7117 17.072L40.7597 16.832V16.544L40.5677 15.68L40.4237 14.48L40.1357 13.136L40.2797 13.04L40.0877 12.416L40.1837 12.128L39.9917 11.36H39.9437L39.7997 11.264H39.7517V10.64L39.5117 10.256V9.2L39.4157 9.104L39.0317 9.776L38.9837 10.064L38.6477 10.688L38.2157 11.072L37.8317 11.648L37.7837 11.888L37.5437 12.176L37.4477 12.416L37.5917 12.608L37.3037 12.992L37.2557 13.232L37.1117 13.52L37.0157 13.76H37.0637L36.5837 14.576L36.4397 14.672L36.5357 14.768L35.4797 17.36L35.1917 17.744L34.7117 19.04L34.3757 19.52L34.5197 19.424L34.3757 19.568L34.2797 19.904L34.2317 20.096L34.0397 20.384L34.2317 20.48L34.0877 20.96L33.8477 21.44L33.4637 22.016L33.4157 22.352L33.1277 22.976L32.0717 26.576H31.8797L31.1117 28.928V29.168L30.9677 30.08L30.9197 30.224L30.7277 30.32L30.2957 31.808V32.096L29.9117 32.864L29.7197 33.872L29.4797 34.064L29.1437 34.928L28.1837 35.792L27.2237 36.368L25.8317 36.896H25.0157L25.0637 36.608L24.0557 35.6L23.9597 34.928V34.784L23.9117 34.736V34.448L23.6717 33.392L24.0077 32.24L24.1997 31.424L24.1037 31.28L24.1997 30.848L24.2477 30.704L24.6797 29.84L24.5837 29.552L24.8237 28.64L24.9677 28.544L24.7757 28.448L25.0157 27.584L25.0637 27.488L25.2557 27.2L25.3037 27.104V27.008L25.6877 25.616L26.0237 25.088L26.0717 24.56L26.5037 23.744L26.5997 23.6L26.7437 23.216L26.7917 23.072L26.8877 22.736L27.1757 21.392H27.3677L27.4637 21.104L27.6557 20.72L27.7997 20.576L28.3757 18.992L28.6157 18.128L28.6637 17.984L28.7597 17.888L28.8557 17.456L29.2877 16.736L29.6237 16.16L29.6717 15.968L30.3437 14.288L30.4397 14L30.8717 13.424L30.9197 13.232L31.2077 12.608L32.4077 10.16L32.9837 9.296L33.5597 8L33.6077 7.808L33.7037 7.712L33.8477 7.232L34.9997 5.552L35.0477 5.408L35.4797 4.976V4.928L35.6237 4.688L35.6717 4.592L35.8637 4.352L35.9597 4.256L36.3917 3.68L36.3437 3.584L37.3517 2.672L37.6877 2.192L38.0237 2.24L38.3597 1.808H38.5517L39.7997 1.232L40.3277 1.376L40.8077 1.04H41.0957L41.6237 1.232L42.2957 1.808L43.4477 2.336L44.0717 3.68L44.7917 4.832L44.6957 4.928L45.1277 5.744L45.0317 6.08L45.5597 7.04L45.3197 7.136L45.5117 7.52L45.5597 8.384L45.8957 9.104L46.0397 10.544L45.9917 12.848L46.5197 11.792L46.5677 11.648L46.6637 11.552L46.7117 11.312L46.7597 11.216L47.0957 10.592L47.1437 9.968L47.8157 9.152L48.2477 8.48L48.6317 7.52L48.9677 7.232L49.4477 6.512L50.5517 5.312L51.5597 4.16L51.4157 4.256L51.9437 3.68L52.8557 3.152L53.6717 2.192L55.1117 1.52L55.3997 1.424L55.7837 1.52L56.1677 1.424H56.6957L57.4157 1.712L57.9917 1.616L58.2317 1.712L58.5677 2.048L58.8557 1.904L59.1917 2.816L59.7677 3.584L59.9117 4.16L60.3917 4.352L60.4397 4.736L60.6797 4.976L60.5837 5.36L60.7757 5.648H61.0637L60.9677 5.936L61.2077 6.32L61.2557 6.896L61.5917 7.424V8L61.8797 7.904L61.7837 8.672L61.9277 8.768L62.0717 9.104L61.8797 9.584L62.1197 10.448L62.2157 11.36L62.5517 11.792L62.4557 12.512V13.136L62.6957 13.328L62.6477 13.52L62.5997 13.76L62.6957 14.192V14.288L62.6477 15.488L62.6957 16.544L62.8877 16.64L62.8397 16.784L62.7917 17.024V17.456H63.0797ZM93.4014 8.192L93.0654 8.864L92.9694 9.104L92.6814 9.728L92.2974 9.872L92.1534 9.968L92.2014 9.872L91.7214 10.448L91.1454 10.592L90.2814 10.976H89.4174L88.2174 10.64H88.0254L86.9694 10.064H87.0654L84.9054 9.104L84.7134 9.056L84.5214 8.96L84.3294 8.816V8.768L84.1854 8.672H84.0414L83.7054 8.528L83.5614 8.48H83.3694L82.7934 8.336L82.2654 8.096H81.9294L80.6814 7.808L79.6734 7.424L79.6254 7.52H78.6174L78.4734 7.616L78.4254 7.712H78.4734L77.8974 8.672L77.5134 10.064L77.4174 10.112L77.2734 10.64L77.1774 10.928L76.7934 11.264L76.4574 12.128L75.8334 14.192L75.4494 15.2L76.3134 15.104H76.5534L77.0814 14.96H77.2254L77.8014 14.864H77.9454L78.1854 14.816L78.4254 14.672L79.2894 14.864L79.4814 14.768L80.0094 14.624L80.1534 14.576H81.1134L82.6014 14.48L83.4654 14.384H85.0974L86.1054 14.48L86.5854 14.768L86.6814 14.816L86.9694 14.912L87.0174 14.96H87.1614L87.4494 15.2H87.9294L88.4094 16.544L88.0734 18.32L87.6414 19.136L86.4414 20.384L85.0494 20.096L84.8094 19.952L84.5694 19.904H84.5214L83.6094 19.808H83.4654L83.0814 19.904H81.1614L81.1134 20H80.9694H80.9214L80.1054 20.288L80.0094 20.384H79.6734L79.4814 20.336L79.4334 20.288L77.9454 20.576H77.3214L77.0814 20.672L76.2174 20.768H76.1694L75.9774 20.864H75.9294L73.8174 21.296L73.5294 21.2V21.488L73.4334 22.064L73.2894 22.592L73.2414 23.024L73.2894 23.072L73.1454 23.936L73.0974 24.08V24.416L73.1934 25.04L73.2414 24.992L73.1934 26.192L73.2894 26.336L73.4814 26.816V26.96L73.5294 26.912L73.5774 26.816L73.6734 26.768L74.2974 27.68L75.2094 28.544L76.0254 28.64L76.9374 28.448L77.0814 28.544H77.9454L78.6654 28.208L79.6734 27.968L80.5854 27.68L81.2094 27.2L81.8814 27.104L82.6014 26.768L83.0814 26.528L83.2254 26.384L84.4734 25.616L85.2414 25.424L85.6254 25.232L86.0574 25.04L86.7774 24.416L87.3054 24.224H87.4494L87.6894 23.936L88.1214 23.744L88.5054 23.6L89.2254 23.168H89.4654L90.4254 22.928L91.3374 22.976L92.0574 23.36L92.4894 23.84L92.6334 24.608V24.56L92.7294 24.944L92.4894 25.424L92.6334 25.616L92.5374 25.904L92.1054 26.672L91.7694 26.96L91.4334 27.488L90.8574 27.872L90.2814 28.64L88.1694 30.128L88.0254 30.176L87.6894 30.416L87.5934 30.512L87.2574 30.608H87.2094L86.9214 30.8L86.2494 31.232L85.8654 31.328L84.4254 32.288H84.0894L83.6574 32.672H82.9374L81.4974 33.104L81.3534 33.152L81.1134 33.248H81.0174L80.8734 33.296H80.7774L80.0574 33.584L80.2014 33.632L80.2494 33.68H80.2974L78.0414 34.064L77.0814 34.16L76.7934 34.064L76.2654 34.256L76.0734 34.064H74.3454L72.3774 33.776L72.1374 33.392L71.7534 33.296L70.9854 33.008L70.8414 32.96H70.9374L70.7454 32.864L70.5054 32.576L70.3134 32.48L70.1214 32.336L69.8814 32.096L69.2574 31.904L68.3934 30.704L68.3454 30.8H68.2974L67.4814 29.264L67.3374 29.072L67.2894 28.928L67.1934 28.736L67.0974 28.4L67.1454 28.256V27.296L66.8094 26.48L66.7614 25.328L66.9534 23.936L66.8094 23.456L67.3374 21.584L67.2894 21.536V21.392L67.3374 21.296L67.5294 19.904L67.7694 19.136L67.9614 18.848L67.9134 18.032L68.2014 16.976L68.7774 15.968L68.8254 15.2L68.8734 15.008L69.0174 14.672L69.1614 14.384L69.4974 13.04L69.9774 12.416L70.1694 11.84L71.0334 9.392L71.4654 8.96L71.5134 8.72L71.7534 8.192L71.8014 8V8.096L71.8974 7.712V7.664L72.0414 7.376L72.6174 6.512L72.9534 5.264L73.4814 4.544L73.7694 3.776L75.0654 2.192L76.1214 1.184L77.3694 0.799998L78.8094 0.704L78.7614 0.751999L79.1934 0.896H79.9614L80.1054 1.328L81.4014 1.616L82.8894 2.096L84.0414 2.288L84.5214 2.672L84.7614 2.72L85.2894 2.864L85.6254 2.96V3.008L86.6334 3.104L87.0174 3.392L87.7374 3.488L88.2654 3.872H88.9374L89.4174 4.448H90.0894L90.3294 4.784L90.5214 4.928H90.6174L91.5774 5.36L91.7694 5.744L92.2974 5.936L93.2574 7.04L93.4014 8.192ZM92.0522 33.728L91.9562 33.584L91.3802 33.008L91.3322 31.136L91.5242 30.368L91.8602 29.408L92.0042 29.168L92.1482 28.736V28.592L92.4362 28.112L92.5322 27.968L93.3002 26.576L93.3962 26L94.4042 24.416V24.368L94.5002 24.224V24.176L94.5482 24.128L95.1722 22.976L95.2202 22.928L95.5562 22.304L96.0362 21.584L96.4202 20.96L96.4682 20.768L97.1402 19.808V19.664L97.2362 19.376L97.3802 19.088L97.4762 18.992L98.5802 17.648L99.1082 16.832V16.736L99.3002 16.304L99.6362 15.968L100.788 14.192L100.884 13.904L102.036 12.512V12.416L102.276 12.08L102.372 11.936L103.332 10.928V10.832L103.476 10.592L103.524 10.448L103.86 10.064L104.004 9.488L104.484 9.104L105.348 8.096L106.164 6.608L107.7 5.168L108.18 4.064L108.276 3.872L108.66 3.344L109.044 3.104L110.052 2.384H110.292L110.868 2.288H111.588L113.172 3.008L113.604 3.968L113.652 4.928L113.7 5.168L113.748 5.504L113.892 5.888L113.988 6.032L113.94 6.608L114.228 6.992L114.564 8.672L114.516 9.2L114.564 9.872L114.852 10.544L114.996 11.456L114.948 12.032L115.236 12.896L115.332 13.088L115.428 13.376L115.476 13.664L115.524 13.712L115.572 14.288L115.62 14.432L115.764 14.672L115.812 14.768L115.86 16.16L116.004 16.304L116.1 16.736L116.004 16.976L116.34 17.552L116.388 18.32L116.772 20.576L117.156 20.864L116.964 21.488L117.108 22.064L117.012 21.968L117.444 22.928L117.3 23.36L117.636 24.128L117.684 25.904L117.876 26.384L118.068 26.624L117.972 27.104V27.248L118.212 27.536L118.068 28.16L118.164 28.832L118.116 28.976L118.164 29.072L118.116 29.936L117.492 31.424L116.436 32L115.62 32.672L113.988 32.96H113.748L113.412 32.864H113.076L112.788 32.48H112.596L112.26 32.288L112.164 32.096L111.732 31.28L111.492 30.944L111.396 30.368V29.84V29.312L111.252 28.976L111.204 28.256L111.156 28.112L111.252 27.728L111.348 27.488L111.252 26.768L111.108 26.576V26.288L111.156 25.904L111.06 25.184L110.82 24.608L110.916 24.032L110.868 23.888L110.772 23.744L110.724 23.648L110.676 22.544L110.388 21.968L110.532 21.104L110.484 21.056V20.864L110.436 20.768L110.34 19.808H110.292V19.76L110.196 19.712L110.004 19.04V18.032L109.764 17.552L109.716 17.408L109.572 17.12L109.62 17.072L109.524 16.256V15.68L109.476 15.392L109.332 14.96L109.284 14.672L109.044 13.904V13.232L108.516 12.032L107.844 13.136L107.652 13.232L107.46 13.472L107.316 13.712L107.22 13.904H107.172L106.932 14.288H106.884L106.692 14.528V14.576L106.5 14.672L106.356 15.2L106.068 15.392L105.828 15.968L104.676 17.648L104.148 18.176L104.1 18.32L103.812 18.704L103.62 18.992V19.04L102.948 20V20.048L102.756 20.432L102.708 20.576L102.036 21.584L101.988 21.728L101.7 22.064L101.604 22.16L101.316 22.928H101.22L101.124 22.976L101.028 23.072L100.74 23.744L100.26 24.32L100.068 24.992L99.3962 26.288L98.6762 27.104L98.1962 28.352H98.1002L98.0522 28.544L97.4762 29.12L97.3802 29.696L97.3322 29.792L97.0922 30.032L96.9962 30.416L96.6602 31.136L96.5642 31.52L96.4202 31.808L96.2762 32.048L95.9402 32.624L95.7482 32.768L95.2202 33.344L94.2602 33.776L92.6762 33.968H92.4842L92.0522 33.728ZM141.563 22.928L141.611 23.312L141.563 23.456V23.648H141.467L141.515 23.792L141.563 24.032L141.515 24.08V24.128L141.467 24.176V24.224L141.275 24.896L140.267 26.768L139.019 28.16L138.923 28.448L138.059 29.168L136.763 30.128H136.571L136.475 30.272L136.139 30.56L136.043 30.704L134.603 31.136L134.411 31.424L133.931 31.52L133.211 31.712L133.019 31.904H132.731L132.539 31.952L132.395 32L132.155 32.192L132.107 32.384L130.955 32.48L130.619 32.624L129.803 32.768H129.371V32.672H128.699L128.411 32.768H127.931L126.971 32.864L126.635 32.672H125.627L124.523 32.384H124.427V32.288H124.139L123.371 31.808L122.699 31.136L122.363 31.088L122.123 30.848L122.027 30.608L121.931 30.08L121.691 30.032L121.595 29.648L121.643 29.744L121.547 29.504V28.496L121.643 27.248L121.931 25.952L122.075 25.424L122.123 24.992L122.075 24.704L122.171 24.08L122.363 23.552L122.507 21.68L122.939 19.52L123.467 18.032L123.611 17.168L123.755 16.688L123.803 16.544L123.899 15.872V15.824L124.043 15.344L124.187 15.104V14.912L124.331 14.432V14.288L124.523 13.52L124.619 13.328L124.667 13.088L124.619 12.992L124.715 12.704L125.051 11.84L125.435 9.776L125.483 9.728L125.435 9.488L125.483 9.392L125.531 9.104L125.723 8.192L125.819 8L126.155 7.28L126.251 7.04L126.203 6.224L126.683 4.544L127.499 2.672L128.555 2L129.275 1.76L129.899 1.424H131.483L131.867 1.712H131.963V1.808H132.059L132.779 2.48L132.923 3.008L133.163 3.104L133.019 4.256L132.827 4.688L132.971 5.168L132.587 6.416L132.539 6.896L132.299 7.808H132.251L132.155 8.096L131.963 8.528L131.867 8.864V8.912L131.819 9.008L131.723 9.392L131.243 11.168L131.147 11.456V11.744L131.051 12.128L130.523 13.52L130.619 13.616V13.904L130.427 14.672L131.099 14.576L131.819 14.768L133.259 14.96L133.547 15.104L133.643 15.248L134.315 15.296L134.651 15.344L134.747 15.488L135.275 15.536L135.563 15.632L136.187 15.728L136.619 15.968H136.715L136.907 16.256H137.003L137.195 16.352L137.531 16.496L137.771 16.736L138.155 16.928L138.251 16.976H138.395L138.683 17.264L139.403 17.744L139.547 17.936L140.267 18.32L140.699 19.232L141.227 20.096L141.563 21.008L141.515 21.44L141.659 22.256L141.563 22.928ZM135.227 23.12L135.179 22.976L135.083 22.4H135.035L134.987 22.352L134.891 22.304V22.256L134.699 22.304L134.651 22.16L134.315 21.968L134.267 21.92H134.171V21.872L134.027 21.776L133.931 21.536L133.883 21.488L133.115 21.296L132.251 20.768L131.099 20.48H130.907L130.619 20.384H130.475L129.707 20.048H129.611L129.323 20H129.275L129.083 20.672V20.816L128.987 20.912V21.008L128.747 21.44L128.699 21.584L128.651 22.064L128.555 22.928L128.459 23.072L128.507 23.216V23.504L128.363 24.128L128.171 24.8L127.931 25.232L127.787 27.008L128.315 27.2H129.275L129.707 27.056L130.427 27.104L132.059 26.672L132.491 26.576L133.019 25.904L133.883 25.52L134.891 24.32L134.939 24.08L135.131 23.792L135.179 23.552V23.36L135.227 23.12ZM172.808 3.104L172.76 3.296V3.968L172.664 4.592L172.568 5.36L172.472 5.888L172.424 6.416V6.8L172.28 7.136L172.04 7.472L171.992 7.616L170.792 11.744L170.696 12.224L170.6 12.848L170.504 13.616L170.264 14.672L169.976 15.584L169.64 16.16L169.736 16.448V16.544L169.496 17.648L170.648 18.224L170.744 18.896L170.888 18.944L170.984 19.184L171.032 19.568L171.08 19.904L171.176 20L171.08 20.336L170.936 20.72L170.84 20.864L170.792 20.912V20.96L170.744 21.104L169.4 22.256L168.344 22.736L168.392 24.224L168.344 24.368L168.296 24.608L168.248 24.992L168.104 25.424L168.152 25.568L168.104 25.856L168.056 25.904L168.2 27.392L167.96 28.64L168.152 28.928L168.104 29.024L168.008 29.312L167.864 29.456L167.96 29.936L167.912 30.992L167.864 31.184L167.768 31.76L167.96 31.808L167.672 32.384L166.952 33.296L166.472 33.488L165.8 33.872L164.984 34.064L162.968 33.872H162.872L162.728 33.728L162.68 33.584V33.44L162.488 33.296L161.864 32.096L161.672 29.168L161.912 28.352L162.104 24.416L162.344 23.36L161.144 23.168L160.76 23.312L159.8 23.504L158.792 23.648L157.736 23.744H156.824L156.728 23.648H156.584L156.296 23.696L156.104 23.744L155.24 23.936L154.136 23.84H153.752L153.032 23.936H151.208L150.968 23.984L150.44 24.128L150.296 24.224L150.056 24.32L150.008 24.992L149.816 25.424L149.72 26.768L149.96 27.104V27.536L150.104 27.68L150.152 28.64L149.864 29.552L149.816 29.792L149.672 30.224L149.72 30.32L149.768 30.128L149.816 31.04L149.096 32.288L149 32.336L148.808 32.576L148.568 32.96L148.232 33.296L148.04 33.392L148.472 32.864L147.56 33.68L146.312 33.872H145.592L144.92 33.632L144.296 33.152L143.96 32.768L143.432 30.8V30.128L143.384 29.456V29.216H143.432V29.072L143.48 29.024L143.576 28.976V28.784V28.64H143.48L143.864 26.672V26.528L143.912 26.24L143.768 26L143.624 25.904L144.2 24.8L144.152 24.608L144.248 23.984L144.344 23.504L144.392 23.168V23.12L144.488 22.88L144.632 22.736L144.728 22.352L144.776 22.448L144.872 20.768L145.352 19.136V18.752L145.448 17.84V17.456L146.744 12.896L147.32 11.744L147.224 11.312L147.272 11.168L148.04 8.48L148.328 8.096L148.52 7.76L148.76 7.04L148.904 6.704L148.952 5.936L150.344 3.392L151.112 2.384L153.512 1.808L153.944 2.192H154.52L155.384 2.864L155.912 4.16V6.128L155.528 6.512L155.384 7.04L154.952 8.288L154.76 8.864L153.752 10.352L153.656 11.072L152.936 12.32L152.888 12.512L152.648 12.944L152.6 13.136L152.648 13.04L152.504 13.664L152.36 14.432L152.264 15.104H152.312L151.592 16.832L151.16 18.608L151.208 18.656L151.256 18.992H151.304L152.6 18.704H153.896L154.808 18.608L155.336 18.464L156.152 18.416H156.824L156.872 18.368L157.256 18.176L157.352 18.128L158.936 18.224H159.08L159.32 18.128H159.8L159.896 18.032H160.328L161.144 17.936H161.768L162.2 17.84L162.392 17.744L162.488 17.648H162.68L162.968 17.696L163.112 17.744L163.544 16.832L164.168 13.328L164.36 12.992V12.752L164.312 12.464L164.36 12.416L164.984 10.16L164.936 10.016L164.984 9.824L165.032 9.68V9.632L165.128 9.344L165.272 9.2L165.656 6.896V6.8L165.752 6.608L165.848 6.368L165.896 6.224L165.992 6.032V5.744L166.04 5.12L166.136 4.832L166.472 4.208L166.664 4.064L166.904 3.2L167.192 2.864L167.336 2.624L167.768 2.096L169.352 1.136L171.08 0.991999L172.232 2L172.808 3.104ZM174.603 32.672H174.459L174.363 32.528L174.219 32.48L173.739 32.336L173.499 32L173.307 31.328L173.355 31.136L173.019 30.272L173.163 29.552L173.307 29.072L173.883 27.536V27.104L173.979 26L174.123 25.52L174.603 23.936V23.6L174.651 23.456L174.699 23.216L174.603 22.928L174.699 22.64L174.843 21.728L174.939 21.44L174.987 21.008L175.083 20.672L175.179 20.288L175.131 20.24V20L175.179 19.76L175.419 19.328V19.136L175.563 18.608L175.707 17.84L175.899 16.832L176.043 16.112L176.091 15.776L176.043 15.296V14.912L176.139 14.576L176.331 14H176.283L176.235 13.904L176.187 13.76L176.283 13.424L176.619 12.608L176.571 12.32L176.667 11.456L176.763 11.072L176.859 10.736L176.907 10.592L176.859 10.208V10.064L176.955 9.488L176.907 8.96L177.243 7.136L177.723 5.456L178.587 4.064L178.683 3.872H178.779L178.827 3.584L179.115 3.2L179.163 3.056L179.691 2.672L180.363 2.288L181.131 2L181.563 1.904L182.427 2L182.955 2.288L183.099 2.384L183.387 2.528L183.627 2.576L183.867 2.672L184.203 3.2L184.395 3.296L184.683 3.872L184.587 4.448L184.539 4.592L184.587 4.688L184.683 4.832L184.635 5.936L184.395 6.416L184.203 7.424L184.059 7.856L183.915 8.432V8.624L183.867 8.864V9.008L183.483 9.584V9.92L183.435 10.064L183.291 10.64L183.339 11.456L182.955 12.128L182.763 13.424L182.715 13.472L182.571 13.856L182.427 14.288L182.283 14.672V14.768L181.947 17.168L182.523 16.544L182.763 16.064L184.155 14.48V14.336L184.299 14.144L184.347 14.048L184.395 14L184.875 13.136L185.067 12.992L185.547 12.512L185.883 12.176L186.315 11.552L186.507 11.216L187.179 10.304L187.419 9.872L187.899 9.488L188.091 9.104L188.235 9.008L188.475 8.528L188.523 8.384L189.531 7.52L190.779 5.744L190.875 5.408L191.259 4.976L191.451 4.832L191.835 4.352L191.883 4.208L192.075 3.968L192.171 3.872L193.755 2.576L194.955 2.288H195.963L196.683 2.48L197.739 3.296L198.171 4.448V4.496L198.219 5.024L198.315 5.072L198.171 6.032L198.123 6.272L198.219 6.608L198.315 7.136V7.088L198.411 7.328L198.459 7.616L198.507 8L198.459 8.096V8.192L198.315 8.576L198.219 8.96L198.075 9.248V9.296L198.219 10.256L198.267 10.64L198.219 11.504V11.84L198.075 12.704L198.123 12.992L198.219 13.52V13.712L198.123 14.384L198.219 14.672L198.315 15.104L198.267 15.296L198.219 15.776L198.171 16.304L198.075 16.832L198.267 17.456L198.171 18.224L198.027 20.576L198.123 20.624L198.171 20.96H198.219L198.027 22.64L198.219 25.136L198.075 25.616L198.363 26.096L198.315 26.432L198.363 26.768L198.411 26.864V27.872L198.219 29.072L197.499 30.704L196.539 31.568L195.867 31.76L195.531 31.712L195.147 31.904H194.715L192.939 31.808L192.891 31.76L192.795 31.712L192.843 31.616L192.555 31.424L192.459 31.376L192.219 31.04L192.171 30.848L191.979 29.936L191.883 29.792L191.787 29.36V29.072L191.883 28.352V27.824V27.584L191.691 27.104L191.883 25.856L191.835 24.608V22.928V22.88L192.123 21.392L192.219 21.008L192.171 20.24L192.075 19.568L191.835 18.032L192.075 16.832L191.979 15.296V15.248L192.027 15.056L191.979 14.864L191.931 13.712L191.979 13.088L191.931 12.416L191.547 13.136L190.875 13.904L190.827 14.048L190.539 14.336L190.347 14.48L189.003 16.448L188.379 17.072L188.235 17.456L187.707 18.032L187.371 18.752L186.699 19.232L186.267 20.192L185.787 20.816L185.019 21.872L184.827 22.352L184.203 22.832L183.963 23.216L183.387 24.08L183.051 24.512L182.427 25.616L182.043 26.096L180.891 28.16L179.979 29.264L179.931 29.504L179.787 29.888L179.691 30.032L179.019 31.28H178.875L178.731 31.472L178.635 31.712L178.539 31.856L178.587 31.808L177.915 32.576L177.051 33.008H175.371L174.603 32.672ZM218.646 44.72L218.454 44.624L218.31 44.576H218.166L217.206 43.328L217.254 42.608L217.158 42.32L217.206 41.696L217.302 41.456L218.07 38.768L218.118 37.904L218.598 36.896L219.222 34.736L220.038 33.2L220.518 31.808L220.566 31.616L220.854 31.088L220.95 30.896L218.598 31.088H218.022L217.686 31.04H216.39L215.958 31.136H215.814L215.382 31.04L215.094 31.136L214.71 31.184L214.422 31.232H212.742L212.55 31.328H212.118L208.806 31.712L208.23 31.424L208.086 31.52L207.414 31.616H207.366L205.83 31.712L205.686 31.616L204.246 31.664L203.478 31.136H202.71L202.662 31.088L202.71 30.848V30.8L202.758 30.656L202.422 30.608H202.47L202.182 30.032L202.038 29.456L202.134 28.64V28.544L202.086 28.4L202.134 28.256L202.182 27.68V26.384L202.422 26L202.278 25.808L202.326 25.616L202.566 24.416L202.662 24.176V23.456L202.95 22.064L203.334 21.248L203.286 20.672L204.006 18.128L204.246 17.264L204.486 15.776L204.726 14.864L204.678 14.48L205.398 12.704L205.638 11.84L205.686 11.264L206.262 8.288L206.358 8L206.55 7.712L206.598 7.568L206.55 7.328V7.232L206.886 6.032L207.894 4.256L208.086 3.968L208.998 3.392H209.622L209.718 3.344L210.246 3.296H211.878L212.742 3.776L213.51 4.928V5.552L213.606 5.696L213.558 6.08L213.51 6.224L212.934 7.808V7.952L212.982 8.096L212.934 8.192L212.598 9.392L211.974 10.928L211.542 12.416L210.966 14.096L210.87 14.768L210.63 15.68L210.294 16.448L210.342 16.592L210.294 16.976V17.072L210.054 17.936V17.984L209.91 18.128L209.862 18.224L209.766 18.608L209.814 18.8L209.718 19.136L209.766 19.184L209.718 19.28V19.424L209.67 20L208.71 23.264L208.374 24.896L208.278 25.136L208.47 26.096L208.278 26.384L209.67 26.48L210.39 26.288L210.822 26.384L211.446 26.192L212.742 26.288L213.03 26.192L213.702 26.096H215.526L216.15 25.904H216.198L216.822 26.096H216.87L217.35 25.904L217.446 25.808L218.262 25.904L218.55 25.184L218.454 24.512L218.502 24.368V24.224L218.55 24.128L218.598 23.936L218.694 23.648V23.408L218.742 23.264V23.024L218.79 22.976L218.838 22.784V22.4L218.934 22.16L218.886 22.064L218.934 21.968L219.078 21.488L219.174 20.864L219.03 20.672L219.318 19.712L219.27 19.52L219.318 18.944L219.27 18.8L219.318 18.704L219.51 18.368L219.558 18.224L219.654 17.84L219.702 17.408V16.928V16.736L220.23 15.104V15.008L220.278 14.72L220.326 14.576L220.614 13.904L220.47 13.712V13.616L220.854 12.704H220.806L220.758 12.608L220.806 12.512L220.854 12.032L221.046 11.264L221.142 11.12L221.19 11.072L221.238 10.976L221.334 10.064L222.246 6.8L222.678 5.744L222.774 5.264L223.062 4.88L223.254 4.592L223.302 4.544L223.494 3.776L224.07 3.296L224.742 2.768L225.798 2.288L226.518 2.48H227.046L228.486 3.104L228.87 3.68L228.918 5.168L228.15 7.136V7.232L228.198 7.376L228.15 7.424L227.958 7.808L228.006 7.952V8.336L227.958 8.48L227.91 8.96L227.622 9.296L227.67 9.584L227.574 9.872L227.382 11.072L226.902 12.512L226.806 13.136L226.23 15.104L226.326 15.776L225.942 16.736V17.12L225.894 17.264L225.99 17.552L225.51 18.992V19.616L225.318 20.288V21.008L225.126 21.68L225.078 21.824L224.886 22.112L224.838 22.256L224.982 22.832L224.598 24.128L224.646 24.176V24.8L224.598 25.04L224.55 25.328L224.502 25.52L225.174 25.424L225.99 25.52H226.374L227.478 25.808L228.246 26.864L228.486 27.872L228.342 28.736L227.91 29.264L227.478 30.512H227.382L227.238 30.608L227.19 30.656L227.094 30.8L226.998 31.04L226.95 31.28L226.854 31.472L226.662 31.616L226.374 32L226.182 32.384L225.942 32.768L225.606 33.776L225.462 33.872L225.414 34.064L225.366 34.112L225.462 34.256L225.414 34.352L225.222 34.64V34.736H225.174L225.126 34.784L225.03 35.024L224.934 35.36L224.598 35.84L224.55 36.032V36.464L224.454 36.704L223.782 38.096L223.686 38.432L223.734 38.816L223.83 39.056L223.926 39.248L223.878 39.392L224.022 40.16L223.59 41.552L222.438 43.136L221.574 43.808L220.038 44.672L219.462 44.768H219.03L218.646 44.72ZM260.437 21.104L260.293 21.968L260.245 22.16L259.957 22.64L259.813 22.928L259.573 23.072L259.093 23.648L258.229 23.936L258.037 24.32V25.232L257.893 25.712H258.181L258.133 25.808L258.037 26.096L257.989 26.48L257.893 26.768L257.941 26.864V27.104L257.701 28.256V28.736H257.797L257.365 30.128L257.413 30.608L256.741 32.336L255.349 33.296L254.389 33.104L254.149 33.2H253.765L252.661 33.008L252.469 32.576L251.893 32.288L251.557 31.712L251.509 31.424V31.184L251.461 30.992V30.512L251.653 29.072L251.509 28.352L251.461 28.208L251.509 28.016L251.557 27.872L251.509 27.584L251.701 26.96L251.557 26.864L251.653 26.576V26.48L251.701 26.048L251.749 25.904L251.701 25.712L251.605 25.568L251.653 25.136L251.749 24.608L251.653 24.512L251.749 24.32L249.877 24.224L247.093 24.416L246.901 24.464L246.469 24.512H246.133L245.893 24.416L244.549 24.896L241.573 25.424L240.901 25.712L240.421 25.904L239.989 26.192L239.461 26.384H239.221L239.125 26.288L238.789 27.296L238.693 27.44L238.453 27.824L238.405 27.968L238.117 28.64H238.309L237.829 29.36L237.013 30.128V30.224L237.061 30.272V30.32L236.773 30.704L236.821 31.136L236.629 31.232L236.197 32.096L235.813 32.672L235.477 33.488L234.853 34.448L234.517 34.928L234.181 35.216L233.893 35.168L232.741 36.224L231.829 36.464L231.493 36.032L230.965 36.224L231.109 35.744L230.101 35.456L230.149 35.264L230.101 35.216L230.005 35.072L230.053 35.024L229.477 34.256L229.573 34.16V34.112H229.525L229.429 34.016L229.285 33.776L229.669 33.008L229.621 32.864L229.909 32.48L230.341 31.472L230.389 30.896L230.437 30.752L230.581 30.464L230.773 30.176L230.965 29.792L231.013 29.456H231.205L231.253 29.312L231.445 29.072V28.976L231.637 28.736L231.589 28.448L231.877 27.872L232.981 26.288H233.173L233.125 26.096L233.797 25.04L233.941 24.608L234.373 24.08L234.613 23.84L234.805 23.552L234.853 23.36L235.093 22.928L235.237 22.736V22.64L235.429 22.352L235.957 21.392L236.005 21.344L236.197 21.104L236.293 21.008L237.205 19.712L237.589 18.992L238.549 17.648V17.6L238.645 17.408L238.885 17.168L239.701 15.968L240.037 15.776L240.421 14.768H240.709L241.333 13.904L241.669 13.328L242.053 12.608L242.245 11.936L242.629 11.648L243.061 11.072L243.253 10.736L243.301 10.64L244.885 9.296L244.645 9.392L245.461 8.48V8.336H245.413L245.461 8.288V8.192L245.605 8.048L245.701 8L246.037 7.28L246.565 6.992L247.093 6.224L247.381 6.08L247.525 5.936L247.717 5.552L248.341 4.832L248.821 4.448L249.301 3.776H249.205L250.117 2.864L251.461 1.808L252.373 0.896L253.141 0.415998L253.717 0.319999H254.341L254.485 0.415998L255.349 0.896L256.741 2.768L257.077 3.68L257.173 3.776L257.029 4.352L257.365 4.736L257.173 5.648L257.365 6.416L257.317 6.512L257.461 6.704L257.557 6.608L257.461 8V8.336L257.605 8.624L257.653 8.72L257.749 8.864L257.701 9.008L257.653 9.056L257.701 9.104H257.653L257.749 9.2H257.941L257.893 9.392L257.845 10.16L257.653 10.832L257.701 10.88L257.845 11.12V11.168L257.893 12.032L258.181 14.288H258.085L258.325 15.776L258.373 15.872L258.229 17.072V18.32H258.133V18.704L258.805 18.896L259.909 19.52L260.437 21.104ZM252.277 17.936L251.989 17.84H251.893L252.133 16.736H252.037L251.941 15.68L252.037 15.44L251.797 13.52L251.893 12.848L251.749 12.224L251.893 11.552L251.797 11.264L251.749 10.16L251.653 9.584L251.509 9.392V8.72L250.597 9.584L249.349 11.696L249.253 11.888L248.677 12.752L248.053 13.28L247.333 14.528L246.805 15.008H246.709L246.805 15.056L245.701 16.88L245.461 17.072L245.221 17.504L244.213 18.896L243.733 19.136V19.424L245.557 19.088L246.037 18.992H246.805L247.765 18.8L247.861 18.608H248.485L249.301 18.368L249.637 18.608L250.885 18.416V18.512L251.173 18.416H252.229L252.277 17.936Z" fill="#4D515A"/>
</svg>
