<svg width="70" height="70" viewBox="0 0 70 70" fill="none" xmlns="http://www.w3.org/2000/svg">
<path fill-rule="evenodd" clip-rule="evenodd" d="M35 70C54.33 70 70 54.33 70 35C70 15.67 54.33 0 35 0C15.67 0 0 15.67 0 35C0 54.33 15.67 70 35 70ZM28.3053 43.0592C27.344 44.0503 27.3682 45.6331 28.3593 46.5944C29.3504 47.5556 30.9331 47.5315 31.8944 46.5404L41.3997 36.7404L43.0879 34.9998L41.3997 33.2592L31.8944 23.4592C30.9331 22.4681 29.3504 22.444 28.3593 23.4053C27.3682 24.3666 27.344 25.9493 28.3053 26.9404L36.1224 34.9998L28.3053 43.0592Z" fill="#CAFF5E"/>
</svg>
